# xmcd
#
# Track frame offsets:
#	182
#	16627
#	33032
#	54085
#
# Disc length: 933 seconds
#
# Revision: 2
# Processed by: cddbd v1.5.2PL0 Copyright (c) Steve Scherf et al.
# Submitted via: audiograbber 1.83.01
#
DISCID=1903a304
DTITLE=Band ohne Namen - Nobody
DYEAR=2000
DGENRE=Pop
TTITLE0=Nobody (US Remix) - Remix
TTITLE1=Nobody (Remix) - Remix
TTITLE2=Nobody (Hot'n Spicy Remix) - Remix
TTITLE3=Nobody (Dreamchild Remix) - Remix
EXTD=
EXTT0=
EXTT1=
EXTT2=
EXTT3=
PLAYORDER=
